<svg viewBox="0 0 226.77 25.45" xmlns="http://www.w3.org/2000/svg"><symbol id="logo" viewBox="0 0 226.77 25.45"><g fill="#fff"><path d="m6.25 12.58h-6.25a12.53 12.53 0 0 1 12.5-12.51v6.26a6.26 6.26 0 0 0 -6.25 6.25z"/><path d="m6.25 25.08h-6.25a12.51 12.51 0 0 1 12.5-12.5v6.26a6.24 6.24 0 0 0 -6.25 6.24z"/><path d="m25 .11h-6.24a6.27 6.27 0 0 1 -6.26 6.22v6.25a12.5 12.5 0 0 0 9.38-4.25 12.5 12.5 0 0 0 9.38 4.25v-6.25a6.25 6.25 0 0 1 -6.26-6.22z"/><path d="m25 12.62h-6.24a6.27 6.27 0 0 1 -6.26 6.22v6.25a12.54 12.54 0 0 0 9.39-4.25 12.45 12.45 0 0 0 9.37 4.24v-6.25a6.25 6.25 0 0 1 -6.26-6.21z"/><path d="m43.77 6.85h3.31v-2.06c0-3.24 1.37-4.79 4.8-4.79h3.35v2.7h-3.17c-1.48 0-2 .62-2 2v2.15h5.19v2.7h-5.25v15.68h-3v-15.68h-3.23z"/><path d="m74 22.53v2.7h-1.65c-2.45 0-3.28-1-3.32-2.85a7 7 0 0 1 -6.16 3.07c-4 0-6.78-2-6.78-5.37 0-3.68 2.56-5.73 7.39-5.73h5.41v-1.27c0-2.37-1.69-3.82-4.58-3.82-2.59 0-4.32 1.23-4.68 3.1h-3c.43-3.6 3.35-5.73 7.79-5.73 4.68 0 7.39 2.35 7.39 6.64v8c0 1 .36 1.23 1.19 1.23zm-5.08-5.7h-5.7c-2.63 0-4.1 1-4.1 3.07 0 1.8 1.55 3 4 3 3.67 0 5.8-2.13 5.8-5.2z"/><path d="m105.44 16c0 5.62-3.75 9.41-8.83 9.41-3.1 0-5.19-1.26-6.31-3l-.39 2.81h-2.56v-25.22h3v9.8a7.46 7.46 0 0 1 6.31-3.17c5.03-0 8.78 3.43 8.78 9.37zm-3 0c0-4-2.46-6.78-6.1-6.78s-6 2.78-6 6.71 2.45 6.85 6 6.85 6.08-2.78 6.08-6.78z"/><path d="m107.76 16c0-5.59 3.53-9.41 8.72-9.41s8.58 3.28 8.73 8.73c0 .39 0 .82-.08 1.26h-14.27v.25c.11 3.5 2.31 5.95 5.8 5.95a5 5 0 0 0 5.23-3.75h3a7.82 7.82 0 0 1 -8 6.38c-5.52.04-9.13-3.75-9.13-9.41zm14.24-1.83a5.11 5.11 0 0 0 -5.51-4.94 5.44 5.44 0 0 0 -5.49 4.94z"/><path d="m144.57 15v10.23h-2.95v-10c0-3.83-1.77-5.84-5-5.84-3.46 0-5.55 2.56-5.55 6.7v9.19h-3v-18.43h2.56l.39 2.49a7.22 7.22 0 0 1 6.06-2.71c4.21 0 7.49 2.27 7.49 8.37z"/><path d="m175.71 14.63v10.6h-3v-10.42c0-3.6-1.58-5.47-4.36-5.47-3.06 0-4.94 2.3-4.94 6.05v9.84h-2.91v-10.42c0-3.6-1.62-5.47-4.44-5.47-3 0-4.86 2.52-4.86 6.2v9.69h-3v-18.38h2.56l.4 2.52a6.23 6.23 0 0 1 5.37-2.74 6 6 0 0 1 5.8 3.5 6.83 6.83 0 0 1 6.38-3.5c3.86 0 7 2.2 7 8z"/><path d="m178.51 16c0-5.59 3.53-9.41 8.72-9.41s8.58 3.28 8.73 8.73c0 .39 0 .82-.07 1.26h-14.28v.25c.11 3.5 2.31 5.95 5.8 5.95a5 5 0 0 0 5.23-3.75h3a7.82 7.82 0 0 1 -8 6.38c-5.52.04-9.13-3.75-9.13-9.41zm14.28-1.87a5.13 5.13 0 0 0 -5.52-4.94 5.44 5.44 0 0 0 -5.48 4.94z"/><path d="m198.5 16c0-5.59 3.53-9.41 8.72-9.41s8.58 3.28 8.73 8.73c0 .39 0 .82-.08 1.26h-14.27v.25c.11 3.5 2.31 5.95 5.8 5.95a5 5 0 0 0 5.23-3.75h3a7.82 7.82 0 0 1 -8 6.38c-5.53.04-9.13-3.75-9.13-9.41zm14.27-1.87a5.12 5.12 0 0 0 -5.51-4.94 5.43 5.43 0 0 0 -5.48 4.94z"/><path d="m76.36 11.64c0-3.24 1.37-4.79 4.79-4.79h3.35v2.7h-3.17c-1.48 0-2 .62-2 2v13.68h-3z"/><path d="m218.63 13.7v-2.06c0-3.24 1.37-4.79 4.79-4.79h3.35v2.7h-3.17c-1.48 0-2 .62-2 2v13.68h-3v-11.53z"/></g></symbol><use href="#logo" /></svg>
