<svg xmlns="http://www.w3.org/2000/svg" fill="none" viewBox="0 0 128 128">
    <path d="m31.005 63.986-22.005-.001c.015-11.661 4.658-22.839 12.91-31.085 8.253-8.246 19.44-12.885 31.111-12.9v22.007c-5.835.003-11.43 2.319-15.558 6.439-4.127 4.121-6.45 9.709-6.458 15.539z"/><path d="m31.005 107.981h-22.005c.01-11.664 4.651-22.847 12.904-31.095s19.444-12.888 31.117-12.901v22.027c-5.835-.002-11.432 2.31-15.56 6.43-4.128 4.119-6.45 9.709-6.456 15.539z"/><path d="m97.051 20.136v-.136h-22.044v.136c-.041 5.805-2.374 11.359-6.491 15.454-4.117 4.096-9.686 6.402-15.495 6.417v21.978c6.247-.003 12.422-1.337 18.113-3.913 5.691-2.575 10.767-6.333 14.89-11.023 4.123 4.691 9.199 8.45 14.89 11.028 5.69 2.577 11.866 3.913 18.114 3.918v-21.988c-5.808-.018-11.375-2.325-15.49-6.42-4.115-4.096-6.446-9.648-6.487-15.451z"/><path d="m97.051 64.121v-.126h-22.044v.146c-.046 5.803-2.38 11.354-6.496 15.449-4.116 4.094-9.682 6.402-15.49 6.422v21.988c6.249-.007 12.424-1.344 18.115-3.923s10.766-6.34 14.888-11.033c4.125 4.688 9.201 8.445 14.892 11.021 5.69 2.575 11.865 3.91 18.112 3.915v-22.026c-5.802-.018-11.362-2.32-15.476-6.407s-6.45-9.629-6.501-15.426z"/>
    <style>
        path { fill: #000; }
        @media (prefers-color-scheme: dark) {
            path { fill: #FFF; }
        }
    </style>
</svg>
